Coordinates
version=1
nRows=24
nColumns=22
inDegrees=yes

Units are S.I. units (second, meters, Newtons, ...)
If the header above contains a line with 'inDegrees', this indicates whether rotational values are in degrees (yes) or radians (no).

endheader
time	pelvis_tilt	pelvis_list	pelvis_rotation	pelvis_tx	pelvis_ty	pelvis_tz	hip_flexion_r	hip_adduction_r	hip_rotation_r	knee_angle_r	ankle_angle_r	subtalar_angle_r	hip_flexion_l	hip_adduction_l	hip_rotation_l	knee_angle_l	ankle_angle_l	subtalar_angle_l	lumbar_extension	lumbar_bending	lumbar_rotation
      0.01000000	      2.23351169	      0.48176984	    174.61662358	      0.04242984	      0.93921957	      1.23709313	      4.76709558	     -0.84678292	     -9.57518653	    -15.93605906	     13.63763605	     -1.73974652	      3.77265705	      0.85100726	     -4.55997046	    -15.31928633	     13.40917400	     -3.75527570	     -7.37626188	     -2.35324911	     -4.20880640
      0.02000000	      2.17334894	      0.34451837	    174.68050725	      0.04205654	      0.93904751	      1.23765303	      4.99023692	     -1.07833985	     -9.55706352	    -16.50125127	     13.86052224	     -1.71026081	      3.68494353	      1.04348403	     -4.50343587	    -15.28417206	     13.41668096	     -3.76125396	     -7.52212082	     -2.48599108	     -4.27737363
      0.03000000	      2.10911462	      0.17295252	    174.75266896	      0.04160998	      0.93881308	      1.23831438	      5.26758737	     -1.36135201	     -9.51648024	    -17.18030084	     14.11819908	     -1.66625488	      3.58998075	      1.28067146	     -4.43542372	    -15.24598196	     13.42837886	     -3.77899812	     -7.68491568	     -2.65174568	     -4.36301835
      0.04000000	      2.03909727	     -0.02806179	    174.82832255	      0.04111593	      0.93852578	      1.23904168	      5.58715835	     -1.68499685	     -9.44055094	    -17.95154274	     14.40201963	     -1.61334186	      3.48927772	      1.55474749	     -4.35809048	    -15.21029354	     13.43992976	     -3.80586990	     -7.86643279	     -2.84604694	     -4.46050441
      0.05000000	      1.96155919	     -0.25613798	    174.90040309	      0.04057926	      0.93818891	      1.23981789	      5.93729969	     -2.04538021	     -9.33259423	    -18.79433121	     14.69905745	     -1.55853563	      3.37884279	      1.86291362	     -4.28319548	    -15.17404020	     13.46689190	     -3.83358133	     -8.06302191	     -3.06434511	     -4.56582274
      0.06000000	      1.89435909	     -0.50977156	    174.97294094	      0.04005006	      0.93778734	      1.24058999	      6.33276478	     -2.43002259	     -9.17362163	    -19.69723446	     15.00856689	     -1.49259408	      3.29531800	      2.19737848	     -4.19713779	    -15.16417401	     13.47274332	     -3.88029912	     -8.25644726	     -3.31809812	     -4.66964857
      0.07000000	      1.81550371	     -0.77103923	    175.04032880	      0.03948110	      0.93735878	      1.24136566	      6.73482432	     -2.82625181	     -8.99765692	    -20.63915934	     15.30926621	     -1.43482910	      3.19402804	      2.54016221	     -4.12681286	    -15.14968031	     13.51730893	     -3.91090274	     -8.46515852	     -3.57644561	     -4.78965547
      0.08000000	      1.73724605	     -1.03798276	    175.10527344	      0.03890800	      0.93689565	      1.24213614	      7.15699258	     -3.22758089	     -8.79261616	    -21.61653954	     15.58976952	     -1.37678422	      3.10485970	      2.88834145	     -4.05801102	    -15.15875748	     13.57363122	     -3.93743473	     -8.67917279	     -3.83941534	     -4.92013244
      0.09000000	      1.65978791	     -1.30252929	    175.16861031	      0.03833188	      0.93641122	      1.24289242	      7.59608367	     -3.62433561	     -8.56430853	    -22.62418246	     15.84092181	     -1.31678854	      3.02916794	      3.23115560	     -3.99378626	    -15.19315425	     13.64810223	     -3.95832835	     -8.89728814	     -4.09873310	     -5.06075838
      0.10000000	      1.57640209	     -1.55775615	    175.22703818	      0.03775183	      0.93592745	      1.24363593	      8.04690906	     -4.01080143	     -8.31663361	    -23.66502897	     16.05711779	     -1.25727818	      2.95759615	      3.56292596	     -3.93439642	    -15.25029451	     13.74233605	     -3.96804617	     -9.13038609	     -4.34294365	     -5.20690963
      0.11000000	      1.49741568	     -1.79918215	    175.27992433	      0.03717639	      0.93544207	      1.24434620	      8.52859066	     -4.37960637	     -8.04308139	    -24.75058640	     16.22213055	     -1.19251531	      2.90442263	      3.87574421	     -3.88288034	    -15.33608482	     13.84941146	     -3.97464630	     -9.36511663	     -4.57254882	     -5.35954421
      0.12000000	      1.42416090	     -2.02312138	    175.32184789	      0.03659575	      0.93496380	      1.24502334	      9.04991282	     -4.72799053	     -7.74971464	    -25.89365949	     16.32753682	     -1.12315510	      2.86815339	      4.16683187	     -3.84378631	    -15.44607453	     13.96913958	     -3.98085716	     -9.59984685	     -4.77879289	     -5.51236798
      0.13000000	      1.38281277	     -2.21973600	    175.35669211	      0.03603151	      0.93446556	      1.24566508	      9.65186269	     -5.04203179	     -7.43246618	    -27.11345149	     16.33157430	     -1.03258122	      2.88860416	      4.42085714	     -3.83086156	    -15.60034311	     14.11422976	     -4.00764065	     -9.80686447	     -4.94963258	     -5.67866917
      0.14000000	      1.30564350	     -2.39901582	    175.36898532	      0.03541889	      0.93405957	      1.24625878	     10.26173152	     -5.34148340	     -7.10238672	    -28.41180513	     16.29750599	     -0.96744514	      2.85665561	      4.66287446	     -3.80298374	    -15.73826239	     14.22382217	     -4.03298162	    -10.05858128	     -5.10566290	     -5.80648775
      0.15000000	      1.26679105	     -2.55114514	    175.36505721	      0.03480764	      0.93363471	      1.24678973	     10.98175440	     -5.60339358	     -6.74291974	    -29.82081103	     16.13390734	     -0.87997569	      2.88274020	      4.86874534	     -3.80585005	    -15.91200113	     14.34352670	     -4.10345114	    -10.27317534	     -5.22987924	     -5.93753569
      0.16000000	      1.23164474	     -2.67308027	    175.34164038	      0.03415677	      0.93324904	      1.24727322	     11.76847837	     -5.82901433	     -6.36390030	    -31.32953711	     15.84412247	     -0.78227326	      2.91305126	      5.04335324	     -3.82226581	    -16.09648773	     14.45731905	     -4.22131145	    -10.48666765	     -5.31688674	     -6.06137089
      0.17000000	      1.20157705	     -2.77150831	    175.29357132	      0.03346557	      0.93290022	      1.24769437	     12.63186387	     -6.02287134	     -5.95978540	    -32.94838559	     15.41938988	     -0.67080104	      2.94531055	      5.19389593	     -3.85142001	    -16.28354533	     14.55263537	     -4.39324406	    -10.69790939	     -5.37633611	     -6.17112956
      0.18000000	      1.17611309	     -2.84273329	    175.23688316	      0.03272622	      0.93257339	      1.24804496	     13.56681210	     -6.18008290	     -5.55210821	    -34.67544683	     14.85679380	     -0.52508469	      2.98800232	      5.31193052	     -3.90679535	    -16.49233625	     14.67762023	     -4.63508271	    -10.90812901	     -5.40950367	     -6.31033169
      0.19000000	      1.13224998	     -2.89678896	    175.14984779	      0.03193198	      0.93231629	      1.24832054	     14.54817917	     -6.30888881	     -5.11847121	    -36.49519160	     14.13099977	     -0.40191112	      2.99355750	      5.41634591	     -3.96299503	    -16.67814297	     14.76327460	     -4.89359393	    -11.14331027	     -5.42571309	     -6.41578786
      0.20000000	      1.07513131	     -2.92679478	    175.04833754	      0.03108650	      0.93210624	      1.24851248	     15.57061833	     -6.39921568	     -4.67515991	    -38.39050986	     13.25434996	     -0.30584652	      2.97984664	      5.49337203	     -4.03297051	    -16.86594211	     14.85279209	     -5.15945096	    -11.39918350	     -5.41974924	     -6.52513884
      0.21000000	      1.00600407	     -2.93486932	    174.93605936	      0.03019746	      0.93192877	      1.24862069	     16.62686346	     -6.45165108	     -4.22599666	    -40.34077196	     12.24954513	     -0.25742276	      2.95350049	      5.54345788	     -4.11491087	    -17.06513256	     14.95888653	     -5.41424803	    -11.67665502	     -5.39346680	     -6.63812905
      0.22000000	      0.91986042	     -2.91828635	    174.81541677	      0.02926416	      0.93178867	      1.24862254	     17.69494532	     -6.45698852	     -3.76864142	    -42.31094608	     11.14779118	     -0.29849833	      2.90576453	      5.56060712	     -4.21209477	    -17.26914301	     15.07833137	     -5.62006165	    -11.98155760	     -5.34689572	     -6.76827539
      0.23000000	      0.82608909	     -2.87921851	    174.69874034	      0.02829844	      0.93165286	      1.24851704	     18.77134301	     -6.41997472	     -3.32556411	    -44.27189952	      9.99293295	     -0.43925623	      2.85820524	      5.54430768	     -4.30349528	    -17.50037389	     15.23263835	     -5.77691935	    -12.30495467	     -5.28288319	     -6.90969355
      0.24000000	      0.73016479	     -2.81511334	    174.58736950	      0.02729666	      0.93151082	      1.24828629	     19.84266443	     -6.33284758	     -2.90031711	    -46.18037262	      8.83653381	     -0.69993679	      2.81272694	      5.48801453	     -4.40092365	    -17.75173591	     15.41216640	     -5.87357787	    -12.63980619	     -5.19891707	     -7.08498035
